<svg id="visual" viewBox="0 0 900 600" width="900" height="600" xmlns="http://www.w3.org/2000/svg" xmlns:xlink="http://www.w3.org/1999/xlink" version="1.1"><path d="M0 498L21.5 506.7C43 515.3 86 532.7 128.8 538.3C171.7 544 214.3 538 257.2 527.3C300 516.7 343 501.3 385.8 492.7C428.7 484 471.3 482 514.2 482.5C557 483 600 486 642.8 491.5C685.7 497 728.3 505 771.2 502.5C814 500 857 487 878.5 480.5L900 474L900 601L878.5 601C857 601 814 601 771.2 601C728.3 601 685.7 601 642.8 601C600 601 557 601 514.2 601C471.3 601 428.7 601 385.8 601C343 601 300 601 257.2 601C214.3 601 171.7 601 128.8 601C86 601 43 601 21.5 601L0 601Z" fill="#0f0e17" stroke-linecap="round" stroke-linejoin="miter"></path></svg>